{
    "asset": {
        "version": "2.0",
        "generator": "Open Asset Import Library (assimp v5.2.cf7d3637)"
    },
    "extensionsUsed": [
        "KHR_materials_volume",
        "FB_ngon_encoding"
    ],
    "accessors": [
        {
            "bufferView": 0,
            "byteOffset": 0,
            "componentType": 5126,
            "count": 3000054,
            "type": "VEC3",
            "max": [
                0.217132568359375,
                0.5,
                0.23321533203125
            ],
            "min": [
                -0.217132568359375,
                -0.5,
                -0.23321533203125
            ]
        },
        {
            "bufferView": 1,
            "byteOffset": 0,
            "componentType": 5126,
            "count": 3000054,
            "type": "VEC3",
            "max": [
                1.0,
                1.0,
                1.0
            ],
            "min": [
                -1.0,
                -1.0,
                -1.0
            ]
        },
        {
            "bufferView": 2,
            "byteOffset": 0,
            "componentType": 5126,
            "count": 3000054,
            "type": "VEC2",
            "max": [
                0.999755859375,
                0.999755859375
            ],
            "min": [
                0.0,
                0.0107421875
            ]
        },
        {
            "bufferView": 3,
            "byteOffset": 0,
            "componentType": 5125,
            "count": 3000054,
            "type": "SCALAR",
            "max": [
                3000053
            ],
            "min": [
                0
            ]
        }
    ],
    "buffers": [
        {
            "byteLength": 108001944,
            "uri": "result.bin"
        }
    ],
    "bufferViews": [
        {
            "buffer": 0,
            "byteOffset": 0,
            "byteLength": 36000648,
            "target": 34962
        },
        {
            "buffer": 0,
            "byteOffset": 36000648,
            "byteLength": 36000648,
            "target": 34962
        },
        {
            "buffer": 0,
            "byteOffset": 72001296,
            "byteLength": 24000432,
            "target": 34962
        },
        {
            "buffer": 0,
            "byteOffset": 96001728,
            "byteLength": 12000216,
            "target": 34963
        }
    ],
    "images": [
        {
            "name": "tripo_convert_5a1ee112-b55b-4238-ad52-1d23470ad48a.fbm/tripo_image_5a1ee112_0.jpg",
            "uri": "data:image/jpeg;base64,"
        },
        {
            "name": "tripo_convert_5a1ee112-b55b-4238-ad52-1d23470ad48a.fbm/tripo_image_5a1ee112_2.jpg",
            "uri": "data:image/jpeg;base64,"
        }
    ],
    "materials": [
        {
            "name": "tripo_mat_5a1ee112",
            "pbrMetallicRoughness": {
                "baseColorTexture": {
                    "index": 0
                },
                "baseColorFactor": [
                    0.800000011920929,
                    0.800000011920929,
                    0.800000011920929,
                    1.0
                ],
                "metallicFactor": 0.0,
                "roughnessFactor": 0.5
            },
            "normalTexture": {
                "index": 1
            }
        }
    ],
    "meshes": [
        {
            "name": "tripo_mesh_5a1ee112",
            "primitives": [
                {
                    "mode": 4,
                    "material": 0,
                    "indices": 3,
                    "attributes": {
                        "POSITION": 0,
                        "NORMAL": 1,
                        "TEXCOORD_0": 2
                    }
                }
            ]
        }
    ],
    "nodes": [
        {
            "name": "RootNode",
            "children": [
                1
            ]
        },
        {
            "name": "tripo_node_5a1ee112",
            "matrix": [
                1.0,
                0.0,
                0.0,
                0.0,
                0.0,
                -4.371138828673793e-8,
                -1.0,
                0.0,
                0.0,
                1.0,
                -4.371138828673793e-8,
                0.0,
                0.0,
                0.0,
                0.0,
                1.0
            ],
            "mesh": 0,
            "extras": {
                "UserProperties": "",
                "IsNull": false,
                "DefaultAttributeIndex": 0,
                "InheritType": 1
            }
        }
    ],
    "samplers": [
        {},
        {}
    ],
    "scenes": [
        {
            "nodes": [
                0
            ]
        }
    ],
    "textures": [
        {
            "source": 0,
            "sampler": 0
        },
        {
            "source": 1,
            "sampler": 1
        }
    ],
    "scene": 0
}